<svg width="151" height="50" viewBox="0 0 151 50" fill="none" xmlns="http://www.w3.org/2000/svg">
<rect width="151" height="50" fill="white"/>
<g clip-path="url(#clip0_18480_7103)">
<path fill-rule="evenodd" clip-rule="evenodd" d="M57.7386 27.6527L56.9097 30.454H48.4358V30.0584L49.532 29.3038V20.2939L48.4358 19.5379V19.1437H57.3053L57.5037 19.3421L56.9462 21.8734H56.5506C56.1902 20.3114 55.6691 20.0954 53.0771 20.0954H51.8351V24.244L55.9202 23.9929L56.0106 24.0644L55.6326 25.3928L55.5246 25.4293L51.8364 25.0702V29.5036H53.0055C55.1115 29.5036 56.2091 29.1796 57.3417 27.511L57.7386 27.6527ZM145.026 19.5392L143.928 20.2939V30.3095L143.785 30.454H142.039L135.597 21.5683V29.3038L136.893 30.0598V30.454H133.329V30.0584L134.428 29.3038V20.2588L133.167 19.5392V19.1437H136.569L142.759 27.7243V20.2939L141.463 19.5379V19.1437H145.026V19.5392ZM126.491 29.3038L127.787 30.0598V30.454H123.11V30.0584L124.207 29.3038V20.2939L123.11 19.5379V19.1437H127.86C131.171 19.1437 132.88 20.275 132.88 22.4471C132.88 24.9244 130.469 26.6119 126.888 26.6119C126.726 26.6119 126.582 26.6119 126.491 26.593V29.3038ZM122.211 19.5392L121.095 20.275L117.388 30.454H115.247L111.305 20.329L110.155 19.5392V19.1437H114.798V19.5392L113.664 20.3114L116.867 28.514H116.993L119.693 20.2925L118.54 19.5392V19.1437H122.212L122.211 19.5392ZM126.493 25.6601C129.012 25.733 130.543 24.5302 130.543 22.5011C130.543 20.8312 129.679 19.9888 127.951 19.9888C127.465 19.9888 126.907 20.113 126.493 20.3114V25.6601ZM78.7028 25.7681C78.7028 28.5869 76.8128 30.5971 74.1668 30.5971C73.3932 30.5971 72.7452 30.3986 72.1161 30.13V32.8948L73.4121 33.6481V34.0436H68.8221V33.6481L69.9399 32.8948V23.056L68.8235 22.3918V21.9962L71.7935 21.4049L72.1175 21.6209V22.8764C72.4718 22.4273 72.9226 22.0636 73.4364 21.8121C73.9503 21.5607 74.5141 21.428 75.0861 21.4238C77.2272 21.4238 78.7028 23.2895 78.7028 25.7668V25.7681ZM85.9523 23.3989H85.5581C85.2705 23.2193 84.9641 23.1289 84.6576 23.1289C83.9921 23.1289 83.3616 23.3813 82.8054 23.8646V29.3051L84.1365 30.0584V30.454H79.4925V30.0584L80.609 29.3038V23.0573L79.4939 22.3931V21.9976L82.4801 21.4063L82.8041 21.6223V23.0398C83.3805 22.1056 84.3876 21.4427 85.3961 21.4427C85.8645 21.4427 86.2601 21.5683 86.5841 21.8005L85.9523 23.3989ZM92.7185 25.8761C91.5143 25.8761 90.1643 25.8397 88.6887 25.787C88.8872 27.7972 89.9847 28.9636 91.7829 28.9636C92.8629 28.9636 93.5649 28.6936 94.1589 28.1914L94.5369 28.4789C93.9429 29.8964 92.6118 30.6686 90.8838 30.6686C88.2378 30.6686 86.4572 28.8556 86.4572 26.0921C86.4572 23.4529 88.2203 21.4063 90.9014 21.4063C92.1434 21.4063 93.0789 21.8005 93.7445 22.5727C94.41 23.3449 94.734 24.3493 94.7165 25.5886L94.4465 25.8586C94.0874 25.8761 93.5109 25.8761 92.7185 25.8761ZM96.2825 27.9052H96.6605C97.3625 29.0527 98.3885 29.7169 99.2687 29.7169C100.061 29.7169 100.547 29.3038 100.547 28.6585C100.547 27.9214 100.115 27.5272 99.0351 27.1154L98.2251 26.809C96.6956 26.2352 95.7776 25.3199 95.7776 24.1171C95.7776 22.6267 97.1816 21.4778 99.2687 21.4778C100.474 21.4778 101.626 21.7654 102.472 22.2676L101.608 23.7391H101.248C100.654 22.8238 99.9167 22.358 99.0527 22.358C98.2791 22.358 97.7756 22.7887 97.7756 23.3813C97.7756 24.0266 98.244 24.4208 99.6291 24.9608L100.547 25.3199C101.951 25.8586 102.561 26.7023 102.561 27.7972C102.561 29.5198 101.176 30.5971 99.0716 30.5971C97.7756 30.5971 96.462 30.2555 95.5076 29.6642L96.2825 27.9052ZM104.18 27.9052H104.558C105.26 29.0527 106.286 29.7169 107.168 29.7169C107.96 29.7169 108.446 29.3038 108.446 28.6585C108.446 27.9214 108.014 27.5272 106.934 27.1154L106.124 26.809C104.594 26.2352 103.678 25.3199 103.678 24.1171C103.678 22.6267 105.082 21.4778 107.168 21.4778C108.374 21.4778 109.525 21.7654 110.371 22.2676L109.507 23.7391H109.147C108.553 22.8238 107.816 22.358 106.952 22.358C106.178 22.358 105.674 22.7887 105.674 23.3813C105.674 24.0266 106.143 24.4208 107.528 24.9608L108.446 25.3199C109.85 25.8586 110.462 26.7023 110.462 27.7972C110.462 29.5198 109.075 30.5971 106.97 30.5971C105.674 30.5971 104.361 30.2555 103.406 29.6642L104.18 27.9052ZM64.3077 25.9126L66.9524 29.3038L67.9419 30.0598V30.454H63.4586V30.0584L64.3955 29.3578L62.5946 26.917L60.8666 29.3578L61.9115 30.0598V30.454H58.3475V30.0584L59.4464 29.3227L62.0195 26.1637L59.3924 22.8238L58.3839 22.0354V21.6385H62.847V22.034L61.929 22.7333L63.711 25.1566L65.439 22.7333L64.3955 22.034V21.6385H67.9568V22.034L66.8592 22.7698L64.305 25.9099L64.3077 25.9126ZM92.4309 24.7084C92.2325 23.1289 91.4954 22.3756 90.5058 22.3756C89.4258 22.3756 88.7063 23.434 88.6523 24.9433L92.4309 24.7084ZM76.5428 26.6834C76.5428 24.6908 75.5708 23.0384 74.0048 23.0384C73.3581 23.0384 72.729 23.2544 72.1161 23.704V28.4249C72.621 29.1971 73.3946 29.5738 74.3112 29.5738C75.6788 29.5738 76.5428 28.4965 76.5428 26.6834ZM14.5926 38.1031C10.8693 38.1031 8.49334 36.016 8.49334 33.1148C8.49334 32.159 8.77684 30.9926 9.87709 28.622H5.97559L9.55714 20.981H34.4862C35.0532 20.981 35.4447 20.5558 35.4447 20.0617C35.4447 19.5649 35.0532 19.141 34.4862 19.141H14.3091L16.083 15.3556C16.6266 14.2062 17.4845 13.2341 18.5574 12.5518C19.6303 11.8695 20.8744 11.5049 22.1459 11.5H30.6212C35.5149 11.5 39.1329 14.8615 39.1329 19.2463C39.1329 24.4478 34.3445 28.622 28.8135 28.622H12.4286C11.9318 29.648 12.4988 30.4621 13.7057 30.4621H26.7548C28.9175 30.4621 30.5847 31.9822 30.5847 33.9289C30.5847 36.1564 28.422 38.1031 25.9745 38.1031H14.5926Z" fill="#DA3940"/>
</g>
<defs>
<clipPath id="clip0_18480_7103">
<rect width="139.05" height="27" fill="white" transform="translate(5.97461 11.5)"/>
</clipPath>
</defs>
</svg>
