<svg width="151" height="50" viewBox="0 0 151 50" fill="none" xmlns="http://www.w3.org/2000/svg">
<rect width="151" height="50" fill="white"/>
<g clip-path="url(#clip0_18488_7112)">
<mask id="mask0_18488_7112" style="mask-type:luminance" maskUnits="userSpaceOnUse" x="9" y="12" width="134" height="26">
<path d="M9.7002 12H142.3V38H9.7002V12Z" fill="white"/>
</mask>
<g mask="url(#mask0_18488_7112)">
<path fill-rule="evenodd" clip-rule="evenodd" d="M20.8574 35.85C21.9091 37.7623 24.6248 37.8585 25.8104 36.0411L36.9787 19.0202C38.1656 17.2223 37.0372 14.7926 34.8948 14.5443L12.9378 12.0197C10.6056 11.7532 8.92205 14.2388 10.07 16.3045L20.8574 35.85Z" fill="url(#paint0_linear_18488_7112)"/>
<path fill-rule="evenodd" clip-rule="evenodd" d="M20.8574 35.85C21.9091 37.7623 24.6248 37.8585 25.8104 36.0411L36.9787 19.0202C38.1656 17.2223 37.0372 14.7926 34.8948 14.5443L12.9378 12.0197C10.6056 11.7532 8.92205 14.2388 10.07 16.3045L20.8574 35.85Z" fill="url(#paint1_linear_18488_7112)"/>
<path d="M22.4824 32.5792L21.4879 34.0716C21.3975 34.2117 21.2719 34.3256 21.1236 34.4019C20.9754 34.4782 20.8097 34.5142 20.6431 34.5063C20.4766 34.4984 20.3151 34.4469 20.1747 34.3569C20.0343 34.2669 19.9201 34.1417 19.8434 33.9936L20.8574 35.85C21.0485 36.175 21.2773 36.461 21.5269 36.6729C22.7879 37.7428 24.8159 37.5517 25.8104 36.0411L36.9787 19.0202C38.1656 17.2223 37.0372 14.7926 34.8948 14.5443L12.9378 12.0197C10.6056 11.7532 8.92205 14.2388 10.07 16.3045L10.1662 16.4566L28.8498 18.6185C30.0354 18.7524 30.6672 20.1096 30.0172 21.1041L22.4824 32.5792Z" fill="url(#paint2_linear_18488_7112)"/>
<path d="M124.704 17.2597H118.259V31.2217H120.803V27.7403C120.803 27.3971 120.937 27.0708 121.167 26.842C121.406 26.6053 121.727 26.4687 122.064 26.4598H124.685C125.909 26.4598 127.077 25.9814 127.936 25.1208C128.362 24.6936 128.7 24.1865 128.929 23.6286C129.159 23.0707 129.277 22.4729 129.275 21.8695C129.277 21.2661 129.16 20.6682 128.93 20.1102C128.7 19.5523 128.362 19.0452 127.936 18.6182C127.508 18.1929 127.002 17.855 126.445 17.6237C125.895 17.386 125.303 17.2621 124.704 17.2597ZM126.713 21.85C126.709 22.4322 126.476 22.9894 126.063 23.3996C125.652 23.8125 125.095 24.0461 124.513 24.0496H120.783V19.7076H124.513C125.095 19.7111 125.652 19.9448 126.063 20.3576C126.272 20.5682 126.427 20.7983 126.54 21.0661C126.655 21.2962 126.713 21.5627 126.713 21.85ZM109.309 31.1645L104.164 17.222H107.071L110.456 27.206C110.59 27.5687 110.686 27.9314 110.742 28.3149H110.763C110.801 27.9325 110.898 27.5582 111.049 27.2047L114.434 17.2207H117.36L112.197 31.1645H109.309ZM130.251 31.1645V17.222H132.488L139.068 25.867C139.298 26.1725 139.507 26.478 139.679 26.8225H139.718C139.679 26.4013 139.661 25.9814 139.661 25.5615V17.2207H142.3V31.1632H140.062L133.465 22.5182C133.232 22.2185 133.027 21.8983 132.852 21.5614H132.833C132.872 21.9826 132.89 22.4038 132.872 22.8237V31.1632L130.251 31.1645Z" fill="#6D4AFF"/>
<path d="M53.349 17.1837H46.9062V31.1457H49.449V27.6643C49.449 27.3198 49.5829 26.9948 49.8312 26.766C50.0694 26.5256 50.3925 26.3883 50.7308 26.3838H53.3503C54.5749 26.3838 55.7423 25.9054 56.6016 25.0448C57.0277 24.6175 57.3653 24.1104 57.5951 23.5525C57.8249 22.9946 57.9423 22.3968 57.9407 21.7935C57.9427 21.19 57.8255 20.5921 57.5957 20.0341C57.3659 19.4762 57.0281 18.9691 56.6016 18.5422C56.1741 18.1168 55.6676 17.779 55.1105 17.5477C54.5557 17.3045 53.9548 17.1805 53.349 17.1837ZM55.3575 21.774C55.3539 22.356 55.1203 22.9131 54.7075 23.3236C54.2971 23.7363 53.74 23.9699 53.1579 23.9736H49.4477V19.6316H53.1774C53.7595 19.6352 54.3166 19.8688 54.7271 20.2816C54.9364 20.4922 55.091 20.7223 55.2041 20.9901C55.3003 21.2007 55.3575 21.4867 55.3575 21.774ZM58.341 31.1457V25.6181C58.341 23.3613 59.6619 21.5634 62.3009 21.5634C62.7208 21.5634 63.1419 21.6024 63.5618 21.6973V23.9736C63.2563 23.9541 62.9898 23.9541 62.8741 23.9541C61.4779 23.9541 60.8657 24.5859 60.8657 25.8859V31.1457H58.341ZM64.308 26.441C64.308 23.6681 66.4127 21.5452 69.3195 21.5452C72.2445 21.5452 74.3297 23.6681 74.3297 26.441C74.3297 29.2139 72.2263 31.355 69.3195 31.355C66.4127 31.355 64.308 29.2334 64.308 26.441ZM71.8441 26.441C71.8441 24.8537 70.7911 23.7435 69.3195 23.7435C67.8661 23.7435 66.7949 24.8719 66.7949 26.441C66.7949 28.027 67.8466 29.1372 69.3195 29.1372C70.7924 29.1372 71.8441 28.0478 71.8441 26.441ZM81.6929 23.763H78.9577V27.2626C78.9577 28.4872 79.3984 29.0423 80.6607 29.0423C80.7751 29.0423 81.0806 29.0423 81.4628 29.0228V31.0885C80.9857 31.2224 80.4878 31.2991 79.9912 31.2991C77.8683 31.2991 76.4331 30.0173 76.4331 27.6071V23.763H74.7301V21.7545H75.1526C75.3207 21.7565 75.4873 21.7235 75.6419 21.6577C75.7966 21.5919 75.9359 21.4947 76.0509 21.3723C76.2911 21.1345 76.4284 20.8119 76.4331 20.474V18.5617H78.9772V21.7363H81.7124V23.7643L81.6929 23.763ZM82.4586 26.441C82.4586 23.6681 84.562 21.5452 87.4688 21.5452C90.3756 21.5452 92.4803 23.6681 92.4803 26.441C92.4803 29.2139 90.3756 31.355 87.4688 31.355C84.562 31.355 82.4586 29.2334 82.4586 26.441ZM89.9934 26.441C89.9934 24.8537 88.9417 23.7435 87.4688 23.7435C85.9959 23.7435 84.9442 24.8719 84.9442 26.441C84.9442 28.027 85.9972 29.1372 87.4688 29.1372C88.9222 29.1372 89.9934 28.0478 89.9934 26.441ZM93.7985 31.1457V25.7897C93.7985 23.3041 95.3858 21.5257 98.1977 21.5257C101.01 21.5257 102.577 23.3041 102.577 25.7897V31.1262H100.053V26.0016C100.053 24.6249 99.4418 23.7656 98.1977 23.7656C96.9549 23.7656 96.3426 24.6249 96.3426 26.0016V31.147L93.7985 31.1457Z" fill="#1B1340"/>
</g>
</g>
<defs>
<linearGradient id="paint0_linear_18488_7112" x1="23.0167" y1="-3.29297" x2="23.9618" y2="28.8248" gradientUnits="userSpaceOnUse">
<stop offset="0.989" stop-color="#6D4AFF"/>
<stop offset="1"/>
</linearGradient>
<linearGradient id="paint1_linear_18488_7112" x1="26.9908" y1="1.52353" x2="19.1414" y2="35.3235" gradientUnits="userSpaceOnUse">
<stop offset="0.48" stop-color="#24ECC6" stop-opacity="0"/>
<stop offset="0.994" stop-color="#24ECC6"/>
</linearGradient>
<linearGradient id="paint2_linear_18488_7112" x1="34.1837" y1="34.8321" x2="16.778" y2="5.06603" gradientUnits="userSpaceOnUse">
<stop offset="0.066" stop-color="#ABFFEF"/>
<stop offset="0.45" stop-color="#CAC9FF"/>
<stop offset="1" stop-color="#6D4AFF"/>
</linearGradient>
<clipPath id="clip0_18488_7112">
<rect width="132.6" height="26" fill="white" transform="translate(9.7002 12)"/>
</clipPath>
</defs>
</svg>
