<svg width="151" height="50" viewBox="0 0 151 50" fill="none" xmlns="http://www.w3.org/2000/svg">
<rect width="151" height="50" fill="white"/>
<g clip-path="url(#clip0_18488_7124)">
<path d="M66.7988 19.9825H68.2236V20.9066H68.2483C68.4567 20.507 68.7567 20.2239 69.1318 20.0574C69.5067 19.8826 69.9232 19.7993 70.3564 19.7993C70.8898 19.7993 71.3646 19.8909 71.7645 20.0824C72.1645 20.2739 72.4979 20.532 72.7644 20.8567C73.0311 21.1897 73.2227 21.5727 73.3559 22.0139C73.4894 22.4552 73.556 22.9215 73.556 23.421C73.556 23.8789 73.4975 24.3202 73.381 24.7531C73.2644 25.186 73.0811 25.5607 72.8394 25.8937C72.5979 26.2267 72.2895 26.4848 71.9229 26.6847C71.5563 26.8845 71.1148 26.9844 70.6148 26.9844C70.3981 26.9844 70.1732 26.9677 69.9566 26.9261C69.7398 26.8845 69.5234 26.8261 69.3233 26.7346C69.1234 26.6431 68.9317 26.5348 68.765 26.4015C68.5902 26.2683 68.4484 26.1019 68.3402 25.9187H68.3151V29.3239H66.8071V19.9825H66.7988ZM72.048 23.396C72.048 23.088 72.0062 22.7882 71.9312 22.4968C71.8563 22.2054 71.7313 21.9474 71.573 21.7226C71.4145 21.4978 71.2146 21.3146 70.9813 21.1814C70.7398 21.0482 70.4731 20.9732 70.1649 20.9732C69.5316 20.9732 69.0566 21.1897 68.7318 21.631C68.4068 22.0722 68.2483 22.655 68.2483 23.3877C68.2483 23.729 68.2901 24.0454 68.3734 24.3451C68.4567 24.6365 68.5818 24.8946 68.7483 25.1028C68.915 25.3109 69.1149 25.4774 69.3482 25.6023C69.5815 25.7272 69.8482 25.7855 70.1565 25.7855C70.4982 25.7855 70.7896 25.7189 71.0314 25.5773C71.2729 25.4358 71.4646 25.2526 71.6146 25.0278C71.7645 24.803 71.8813 24.5449 71.9479 24.2619C72.0145 23.9871 72.048 23.6957 72.048 23.396Z" fill="#001219"/>
<path d="M80.5465 26.8012H79.0717V25.852H79.0466C78.8634 26.1934 78.5884 26.4681 78.2218 26.6763C77.8552 26.8845 77.4886 26.9843 77.1054 26.9843C76.2056 26.9843 75.5556 26.7596 75.1556 26.3182C74.7557 25.877 74.5557 25.2026 74.5557 24.3035V19.9741H76.0638V24.1536C76.0638 24.753 76.1805 25.1777 76.4055 25.4191C76.6304 25.6689 76.9554 25.7854 77.3719 25.7854C77.6886 25.7854 77.9551 25.7355 78.1635 25.6439C78.3718 25.544 78.5466 25.4191 78.6801 25.2526C78.8133 25.0861 78.905 24.8946 78.9633 24.6698C79.0217 24.445 79.0466 24.1952 79.0466 23.9288V19.9741H80.5548V26.8012H80.5465Z" fill="#001219"/>
<path d="M82.1299 19.9825H83.5462V21.298H83.5713C83.6129 21.1148 83.7046 20.9316 83.8297 20.7568C83.9546 20.5819 84.1129 20.4238 84.2879 20.2739C84.4628 20.124 84.6712 20.0158 84.8878 19.9242C85.1044 19.8326 85.3293 19.791 85.5627 19.791C85.7376 19.791 85.8625 19.7993 85.9292 19.8077C85.996 19.816 86.0625 19.8243 86.1376 19.8326V21.2813C86.0292 21.2647 85.9209 21.248 85.8126 21.2313C85.7043 21.2147 85.596 21.2147 85.4877 21.2147C85.2293 21.2147 84.996 21.2647 84.7712 21.3646C84.5461 21.4645 84.3545 21.6143 84.1878 21.8141C84.0214 22.014 83.8879 22.2554 83.7879 22.5468C83.6879 22.8382 83.6463 23.1712 83.6463 23.5459V26.7929H82.1383V19.9825H82.1299Z" fill="#001219"/>
<path d="M87.7127 23.779C87.7127 24.0454 87.7459 24.2952 87.8211 24.5449C87.8959 24.7947 88.0043 25.0029 88.1544 25.1944C88.3042 25.3775 88.4959 25.5274 88.7209 25.6356C88.9458 25.7438 89.2209 25.8021 89.5374 25.8021C89.9789 25.8021 90.3289 25.7105 90.5957 25.519C90.8622 25.3276 91.0621 25.0445 91.1956 24.6698H92.6204C92.5452 25.0362 92.4036 25.3692 92.2119 25.6606C92.0204 25.952 91.7871 26.1934 91.512 26.3932C91.2373 26.593 90.9372 26.743 90.5957 26.8428C90.254 26.9428 89.9041 26.9927 89.5374 26.9927C89.0043 26.9927 88.5294 26.9011 88.1127 26.7263C87.696 26.5514 87.3461 26.3017 87.0627 25.9853C86.7795 25.6689 86.5629 25.2942 86.4129 24.853C86.2713 24.4117 86.1963 23.9289 86.1963 23.4043C86.1963 22.9214 86.2713 22.4635 86.4296 22.0223C86.5796 21.5893 86.8045 21.2064 87.0878 20.8733C87.371 20.5403 87.7211 20.2822 88.121 20.0907C88.5294 19.8992 88.9792 19.7993 89.4958 19.7993C90.029 19.7993 90.5123 19.9076 90.9372 20.1323C91.362 20.3571 91.7204 20.6569 92.0036 21.0232C92.2871 21.3895 92.487 21.8141 92.6204 22.297C92.7453 22.7799 92.7786 23.2711 92.7203 23.779H87.7127ZM91.2288 22.7966C91.2122 22.5551 91.1621 22.3303 91.0788 22.1139C90.9955 21.8974 90.8789 21.7059 90.7373 21.5394C90.5957 21.3729 90.4121 21.248 90.2122 21.1398C90.004 21.0399 89.7706 20.9899 89.5206 20.9899C89.2541 20.9899 89.021 21.0399 88.8042 21.1314C88.5876 21.223 88.4043 21.3479 88.2459 21.5144C88.0959 21.6809 87.971 21.8724 87.8794 22.0889C87.7876 22.3054 87.7377 22.5468 87.7294 22.8049H91.2288V22.7966Z" fill="#001219"/>
<path d="M94.0371 19.999L96.1784 25.9769H96.2035L98.3114 19.999H99.1697L96.62 26.8011H95.7369L93.1123 19.999H94.0371Z" fill="#001219"/>
<path d="M100.752 19.9991V21.2896H100.777C100.969 20.815 101.285 20.4487 101.718 20.1906C102.152 19.9325 102.652 19.7993 103.202 19.7993C103.718 19.7993 104.168 19.8992 104.551 20.0907C104.935 20.2822 105.251 20.5486 105.509 20.8733C105.768 21.2064 105.951 21.5893 106.076 22.0223C106.201 22.4552 106.259 22.9131 106.259 23.4043C106.259 23.8872 106.201 24.3451 106.076 24.7864C105.951 25.2193 105.768 25.6023 105.509 25.9353C105.251 26.2683 104.935 26.5264 104.551 26.7096C104.168 26.9011 103.718 26.9927 103.202 26.9927C102.952 26.9927 102.71 26.9595 102.46 26.9011C102.21 26.8428 101.985 26.7513 101.777 26.6264C101.569 26.5015 101.377 26.3516 101.219 26.1684C101.052 25.9853 100.927 25.7688 100.844 25.519H100.819V29.3156H99.9854V19.9991H100.752ZM105.31 22.347C105.226 21.9973 105.093 21.6893 104.91 21.4145C104.726 21.1398 104.501 20.9233 104.218 20.7484C103.935 20.5736 103.601 20.4904 103.202 20.4904C102.743 20.4904 102.36 20.5653 102.052 20.7318C101.743 20.89 101.494 21.0981 101.31 21.3645C101.127 21.631 100.994 21.939 100.919 22.2887C100.844 22.6384 100.81 23.013 100.81 23.396C100.81 23.7457 100.852 24.0954 100.935 24.4451C101.018 24.7947 101.152 25.1028 101.344 25.3775C101.535 25.6523 101.777 25.8687 102.085 26.0436C102.385 26.2184 102.76 26.3017 103.202 26.3017C103.601 26.3017 103.935 26.2184 104.218 26.0436C104.501 25.8687 104.726 25.6523 104.91 25.3775C105.093 25.1028 105.218 24.7947 105.31 24.4451C105.393 24.0954 105.435 23.7457 105.435 23.396C105.435 23.0463 105.393 22.6967 105.31 22.347Z" fill="#001219"/>
<path d="M108.384 19.9991V21.1731H108.41C108.568 20.7568 108.851 20.4321 109.251 20.174C109.659 19.9242 110.101 19.7993 110.584 19.7993C111.059 19.7993 111.459 19.8576 111.776 19.9825C112.101 20.1074 112.35 20.2822 112.55 20.507C112.742 20.7318 112.884 21.0065 112.959 21.3312C113.042 21.6559 113.075 22.0223 113.075 22.4219V26.8012H112.242V22.5551C112.242 22.2637 112.217 21.9973 112.167 21.7475C112.117 21.4978 112.026 21.2813 111.892 21.0981C111.759 20.915 111.584 20.7651 111.359 20.6652C111.134 20.5569 110.859 20.507 110.517 20.507C110.176 20.507 109.884 20.5653 109.626 20.6819C109.368 20.7984 109.143 20.9649 108.968 21.1731C108.784 21.3812 108.643 21.6226 108.543 21.914C108.443 22.1971 108.384 22.5135 108.376 22.8465V26.8179H107.543V20.0158H108.384V19.9991Z" fill="#001219"/>
<path d="M45.4196 38.9733C53.4264 38.9733 59.9172 32.4875 59.9172 24.4867C59.9172 16.4859 53.4264 10 45.4196 10C37.4127 10 30.9219 16.4859 30.9219 24.4867C30.9219 32.4875 37.4127 38.9733 45.4196 38.9733Z" fill="#3B108E"/>
<path d="M45.5777 13.0804C46.7859 13.0221 47.9606 13.0971 49.0772 13.3302C51.0435 13.7381 52.9266 14.6206 54.2097 16.2275C56.0262 18.4921 56.751 21.3395 56.5678 24.3866C56.3426 28.2831 54.4263 31.7715 51.5186 33.9862C49.8437 35.2601 47.7691 36.1176 45.4778 36.1176C42.145 36.1257 39.3537 34.2025 37.3374 31.9463C35.4294 29.8067 34.1712 27.0259 34.0046 24.0037C34.0046 23.9704 34.0046 23.9287 33.9962 23.8954C33.9629 23.1211 34.0212 22.3469 34.1962 21.6059C34.7045 19.3829 36.0626 17.5846 37.704 16.1942C39.8203 14.3792 42.5782 13.2303 45.5777 13.0804Z" fill="#6536CC"/>
<path d="M45.7361 16.1698C46.6526 16.0532 47.5441 15.9783 48.419 16.0199C49.9271 16.0865 51.5433 16.4778 52.4184 17.8932C53.6181 19.8331 53.5764 22.0394 53.2181 24.304C52.7848 27.0265 51.5433 29.549 49.6771 31.3807C48.6022 32.4299 47.1942 33.279 45.5361 33.2874C43.0448 33.2958 41.2118 31.2143 39.8203 29.5074C38.4372 27.8174 37.429 25.7443 37.0791 23.5297C37.0791 23.5047 37.0708 23.4797 37.0708 23.4464C36.9958 22.8969 37.0041 22.3391 37.1374 21.8062C37.5457 20.2077 38.7872 19.1587 40.037 18.3261C41.67 17.2188 43.6364 16.4445 45.7361 16.1698Z" fill="#8260EF"/>
<path d="M40.1365 23.0551C40.6781 24.4538 41.4446 25.8192 42.2861 27.0597C43.061 28.2002 43.9275 30.4566 45.5773 30.44C46.6021 30.4316 47.3437 29.5906 47.8103 28.7666C48.6435 27.3177 49.2434 25.7609 49.8515 24.2123C50.4349 22.7304 51.2098 21.1568 50.6181 19.55C50.1682 18.3261 48.8018 18.4343 47.752 18.7008C47.1271 18.8589 46.5021 19.0588 45.8856 19.2502C44.6941 19.6249 43.5276 20.0745 42.3361 20.4741C41.4863 20.7655 40.3448 21.0486 40.0448 22.0227C39.9448 22.3391 39.9948 22.6888 40.1115 23.0051C40.1281 23.0218 40.1281 23.0384 40.1365 23.0551Z" fill="white"/>
</g>
<defs>
<clipPath id="clip0_18488_7124">
<rect width="89.2682" height="29" fill="white" transform="translate(30.9219 10)"/>
</clipPath>
</defs>
</svg>
